# ProBuilder 5.2.3
# https://unity3d.com/unity/features/worldbuilding/probuilder
# 1/27/2025 5:09:18 PM

mtllib ./Cube_(2).mtl
o Cube (2)

g Cube (2)
v 1.3125 0 3
v -5.375 0 3
v -1.6875 2.5 3
v -2.6875 2.5 3
v -5.375 0 -2.5
v -2.6875 2.5 -2.5
v 1.3125 0 -2.5
v -1.6875 2.5 -2.5

vt 1.3125 0
vt -5.375 0
vt -1.6875 2.5
vt -2.6875 2.5
vt 3.935504 3
vt 3.935504 -2.5
vt 0.264992 3
vt 0.264992 -2.5
vt 5.375 0
vt -1.3125 0
vt 2.6875 2.5
vt 1.6875 2.5
vt -1.008291 -2.5
vt -1.008291 3
vt 2.896834 -2.5
vt 2.896834 3
vt 1.6875 3
vt 2.6875 3
vt 1.6875 -2.5
vt 2.6875 -2.5
vt 1.3125 -2.5
vt -5.375 -2.5
vt 1.3125 3
vt -5.375 3

vn 0 0 1
vn -0.6811039 0.7321867 0
vn 0 0 -1
vn 0.6401844 0.7682213 0
vn 0 1 0
vn 0 -1 0

usemtl ProBuilderDefault
f 3/3/1 4/4/1 2/2/1 1/1/1
f 4/7/2 6/8/2 5/6/2 2/5/2
f 6/11/3 8/12/3 7/10/3 5/9/3
f 8/15/4 3/16/4 1/14/4 7/13/4
f 8/19/5 6/20/5 4/18/5 3/17/5
f 1/23/6 2/24/6 5/22/6 7/21/6

